<svg viewBox="0 0 431 514" fill="none" xmlns="http://www.w3.org/2000/svg">
<path d="M93.1689 490.588H90.2881C90.1416 489.497 89.8242 488.529 89.3359 487.683C88.8477 486.82 88.1966 486.096 87.3828 485.51C86.5853 484.924 85.6331 484.476 84.5264 484.167C83.4359 483.858 82.2152 483.703 80.8643 483.703C78.9925 483.703 77.3079 484.021 75.8105 484.655C74.3294 485.274 73.068 486.169 72.0264 487.341C70.9847 488.496 70.1872 489.904 69.6338 491.564C69.0804 493.225 68.8037 495.096 68.8037 497.18C68.8037 499.296 69.0804 501.192 69.6338 502.868C70.2035 504.545 71.0173 505.969 72.0752 507.141C73.1331 508.296 74.4189 509.183 75.9326 509.802C77.4626 510.42 79.196 510.729 81.1328 510.729C84.1602 510.729 86.4469 510.29 87.9932 509.411C89.5394 508.516 90.3125 507.149 90.3125 505.31V502.087C90.3125 501.761 90.2881 501.517 90.2393 501.354C90.1904 501.175 90.0602 501.045 89.8486 500.964C89.6533 500.882 89.3441 500.842 88.9209 500.842C88.4977 500.826 87.9199 500.817 87.1875 500.817H84.1357V498.254C84.6729 498.254 85.2018 498.262 85.7227 498.278C86.2598 498.278 86.8294 498.278 87.4316 498.278C88.0501 498.278 88.7093 498.286 89.4092 498.303C90.1253 498.303 90.9229 498.303 91.8018 498.303C92.111 498.303 92.4854 498.303 92.9248 498.303C93.3643 498.286 93.8118 498.278 94.2676 498.278C94.7396 498.278 95.1953 498.278 95.6348 498.278C96.0905 498.262 96.4893 498.254 96.8311 498.254C96.8311 498.286 96.8229 498.433 96.8066 498.693C96.7904 498.938 96.7741 499.214 96.7578 499.523C96.7578 499.816 96.7497 500.093 96.7334 500.354C96.7171 500.598 96.709 500.736 96.709 500.769C95.9766 500.785 95.4069 500.817 95 500.866C94.5931 500.899 94.292 500.964 94.0967 501.062C93.9014 501.159 93.7793 501.289 93.7305 501.452C93.6979 501.599 93.6816 501.802 93.6816 502.062C93.6816 502.941 93.6328 504.007 93.5352 505.261C93.4538 506.498 93.3724 507.775 93.291 509.094C92.3958 510.005 91.4437 510.754 90.4346 511.34C89.4417 511.926 88.4245 512.39 87.3828 512.731C86.3574 513.057 85.3239 513.277 84.2822 513.391C83.2406 513.521 82.2314 513.586 81.2549 513.586C78.4229 513.586 75.9326 513.203 73.7842 512.438C71.6357 511.657 69.8291 510.559 68.3643 509.143C66.9157 507.71 65.8252 505.993 65.0928 503.991C64.3604 501.973 63.9941 499.727 63.9941 497.253C63.9941 494.844 64.3929 492.639 65.1904 490.637C65.988 488.618 67.0947 486.893 68.5107 485.461C69.9268 484.012 71.6113 482.889 73.5645 482.092C75.5176 481.294 77.6497 480.896 79.9609 480.896C81.8978 480.896 83.7126 481.18 85.4053 481.75C87.1143 482.303 88.6035 483.19 89.873 484.411L90.1172 481.896H93.1689V490.588ZM120.684 507.531C120.684 508.378 120.708 509.029 120.757 509.484C120.822 509.924 120.936 510.249 121.099 510.461C121.261 510.656 121.489 510.77 121.782 510.803C122.091 510.819 122.49 510.827 122.979 510.827H124.077V513C122.791 513 121.514 513.008 120.244 513.024C118.991 513.041 117.819 513.065 116.729 513.098V509.753C115.752 511.006 114.588 511.95 113.237 512.585C111.903 513.203 110.34 513.513 108.55 513.513C107.378 513.513 106.32 513.342 105.376 513C104.432 512.674 103.626 512.219 102.959 511.633C102.292 511.047 101.771 510.347 101.396 509.533C101.038 508.719 100.859 507.824 100.859 506.848C100.859 505.806 101.071 504.862 101.494 504.016C101.917 503.153 102.536 502.421 103.35 501.818C104.163 501.216 105.148 500.752 106.304 500.427C107.476 500.085 108.81 499.914 110.308 499.914C111.333 499.914 112.367 499.995 113.408 500.158C114.45 500.305 115.508 500.516 116.582 500.793V497.277C116.582 495.796 116.086 494.665 115.093 493.884C114.116 493.103 112.611 492.712 110.576 492.712C108.867 492.712 107.524 493.046 106.548 493.713C105.588 494.364 104.945 495.381 104.619 496.765L102.373 496.496L102.69 492.199C103.732 491.727 104.945 491.345 106.328 491.052C107.728 490.743 109.299 490.588 111.04 490.588C112.765 490.588 114.238 490.743 115.459 491.052C116.68 491.361 117.673 491.833 118.438 492.468C119.219 493.103 119.788 493.916 120.146 494.909C120.505 495.886 120.684 497.041 120.684 498.376V507.531ZM111.235 501.965C110.259 501.965 109.38 502.079 108.599 502.307C107.817 502.518 107.15 502.827 106.597 503.234C106.06 503.641 105.645 504.138 105.352 504.724C105.059 505.31 104.912 505.977 104.912 506.726C104.912 507.393 105.026 507.987 105.254 508.508C105.498 509.012 105.832 509.444 106.255 509.802C106.694 510.16 107.215 510.445 107.817 510.656C108.42 510.868 109.079 510.965 109.795 510.949C110.576 510.965 111.366 510.852 112.163 510.607C112.977 510.347 113.709 509.989 114.36 509.533C115.011 509.061 115.54 508.475 115.947 507.775C116.37 507.059 116.582 506.205 116.582 505.212V502.819C115.605 502.543 114.678 502.331 113.799 502.185C112.92 502.038 112.065 501.965 111.235 501.965ZM144.609 499.987C144.609 498.913 144.552 497.953 144.438 497.106C144.341 496.244 144.137 495.511 143.828 494.909C143.519 494.307 143.079 493.859 142.51 493.566C141.94 493.273 141.191 493.127 140.264 493.127C139.482 493.127 138.783 493.233 138.164 493.444C137.546 493.656 136.976 493.941 136.455 494.299C135.934 494.657 135.438 495.064 134.966 495.52C134.51 495.975 134.03 496.48 133.525 497.033V507.312C133.525 508.239 133.517 508.947 133.501 509.436C133.501 509.924 133.607 510.274 133.818 510.485C134.046 510.681 134.412 510.786 134.917 510.803C135.438 510.819 136.187 510.827 137.163 510.827V513C136.74 513 136.325 513 135.918 513C135.511 513 135.088 513 134.648 513C134.209 513 133.745 513 133.257 513C132.769 512.984 132.231 512.967 131.646 512.951C130.457 512.951 129.408 512.959 128.496 512.976C127.585 512.992 126.673 513 125.762 513V510.827C126.657 510.827 127.349 510.803 127.837 510.754C128.325 510.689 128.683 510.607 128.911 510.51C129.139 510.396 129.269 510.257 129.302 510.095C129.351 509.916 129.375 509.704 129.375 509.46V494.445C129.375 494.185 129.31 493.981 129.18 493.835C129.066 493.672 128.87 493.558 128.594 493.493C128.317 493.412 127.951 493.363 127.495 493.347C127.056 493.33 126.519 493.322 125.884 493.322V491.149C126.209 491.149 126.527 491.158 126.836 491.174C127.161 491.174 127.552 491.174 128.008 491.174C128.887 491.174 129.757 491.166 130.62 491.149C131.499 491.117 132.378 491.084 133.257 491.052V494.665C134.347 493.379 135.617 492.386 137.065 491.687C138.514 490.987 140.109 490.62 141.851 490.588C143.299 490.588 144.585 490.946 145.708 491.662C146.847 492.378 147.702 493.42 148.271 494.787C149.46 493.452 150.786 492.419 152.251 491.687C153.716 490.954 155.278 490.588 156.938 490.588C158.42 490.62 159.616 490.881 160.527 491.369C161.455 491.857 162.163 492.541 162.651 493.42C163.156 494.299 163.49 495.357 163.652 496.594C163.831 497.831 163.929 499.214 163.945 500.744V509.704C163.945 509.981 164.002 510.192 164.116 510.339C164.23 510.469 164.417 510.567 164.678 510.632C164.954 510.697 165.312 510.738 165.752 510.754C166.191 510.754 166.737 510.762 167.388 510.778V513C166.476 513 165.565 512.992 164.653 512.976C163.758 512.959 162.725 512.951 161.553 512.951C160.983 512.951 160.462 512.959 159.99 512.976C159.518 512.976 159.071 512.976 158.647 512.976C158.224 512.976 157.809 512.984 157.402 513C156.995 513 156.58 513 156.157 513V510.778C156.857 510.762 157.443 510.746 157.915 510.729C158.387 510.697 158.761 510.64 159.038 510.559C159.315 510.461 159.51 510.331 159.624 510.168C159.754 509.989 159.819 509.737 159.819 509.411V499.987C159.819 498.832 159.762 497.823 159.648 496.96C159.535 496.097 159.315 495.381 158.989 494.812C158.68 494.226 158.241 493.802 157.671 493.542C157.101 493.265 156.361 493.127 155.449 493.127C154.652 493.127 153.936 493.257 153.301 493.518C152.666 493.762 152.08 494.071 151.543 494.445C151.006 494.803 150.509 495.21 150.054 495.666C149.614 496.105 149.207 496.577 148.833 497.082C148.8 497.668 148.776 498.262 148.76 498.864C148.743 499.466 148.735 500.085 148.735 500.72V509.631C148.735 509.924 148.784 510.152 148.882 510.314C148.996 510.461 149.175 510.575 149.419 510.656C149.679 510.721 150.029 510.762 150.469 510.778C150.924 510.795 151.494 510.811 152.178 510.827V513C151.771 513 151.372 513 150.981 513C150.591 513 150.184 513 149.761 513C149.354 513 148.914 513 148.442 513C147.97 512.984 147.45 512.967 146.88 512.951C146.278 512.951 145.716 512.959 145.195 512.976C144.691 512.976 144.202 512.976 143.73 512.976C143.258 512.976 142.795 512.984 142.339 513C141.899 513 141.452 513 140.996 513V510.827C141.68 510.811 142.249 510.795 142.705 510.778C143.177 510.746 143.551 510.689 143.828 510.607C144.121 510.51 144.325 510.371 144.438 510.192C144.552 510.013 144.609 509.777 144.609 509.484V499.987ZM191.655 502.819H174.37C174.386 504.121 174.59 505.269 174.98 506.262C175.371 507.255 175.924 508.101 176.641 508.801C177.357 509.484 178.211 510.013 179.204 510.388C180.213 510.762 181.328 510.949 182.549 510.949C184.258 510.949 185.739 510.599 186.992 509.899C188.245 509.2 189.214 508.117 189.897 506.652L192.852 507.116C192.103 509.183 190.785 510.77 188.896 511.877C187.025 512.967 184.722 513.513 181.987 513.513C180.148 513.513 178.496 513.236 177.031 512.683C175.566 512.129 174.321 511.348 173.296 510.339C172.287 509.33 171.514 508.15 170.977 506.799C170.439 505.432 170.171 503.877 170.171 502.136C170.171 500.378 170.448 498.799 171.001 497.399C171.554 495.983 172.336 494.771 173.345 493.762C174.354 492.753 175.566 491.971 176.982 491.418C178.415 490.865 180.002 490.588 181.743 490.588C183.501 490.588 185.08 490.856 186.479 491.394C187.879 491.914 189.067 492.679 190.044 493.688C191.021 494.698 191.769 495.926 192.29 497.375C192.827 498.824 193.104 500.492 193.12 502.38L191.655 502.819ZM189.165 500.622C188.97 498.164 188.237 496.301 186.968 495.031C185.698 493.762 183.973 493.127 181.792 493.127C180.767 493.127 179.831 493.306 178.984 493.664C178.138 494.006 177.397 494.494 176.763 495.129C176.128 495.747 175.607 496.512 175.2 497.424C174.81 498.335 174.541 499.401 174.395 500.622H189.165Z" fill="white"/>
<path d="M222.119 509.89C224.466 509.89 226.528 509.707 228.306 509.343C230.083 508.955 231.576 508.317 232.783 507.429C233.991 506.517 234.902 505.321 235.518 503.84C236.133 502.336 236.452 500.467 236.475 498.234L240.439 498.918L240.098 507.805C238.73 508.99 237.284 509.969 235.757 510.744C234.253 511.519 232.703 512.134 231.108 512.59C229.536 513.046 227.93 513.365 226.289 513.547C224.671 513.729 223.065 513.82 221.47 513.82C217.778 513.82 214.531 513.273 211.729 512.18C208.949 511.086 206.613 509.548 204.722 507.565C202.83 505.56 201.406 503.156 200.449 500.354C199.492 497.551 199.014 494.44 199.014 491.022C199.014 487.536 199.561 484.392 200.654 481.589C201.748 478.763 203.286 476.348 205.269 474.343C207.251 472.338 209.621 470.799 212.378 469.729C215.158 468.635 218.234 468.088 221.606 468.088C224.181 468.088 226.608 468.498 228.887 469.318C231.165 470.139 233.148 471.289 234.834 472.771L235.21 469.387H239.482V481.657L235.518 481.589C235.381 480.017 234.959 478.627 234.253 477.419C233.569 476.211 232.646 475.209 231.484 474.411C230.345 473.591 228.978 472.976 227.383 472.565C225.811 472.155 224.056 471.95 222.119 471.95C219.613 471.95 217.345 472.395 215.317 473.283C213.312 474.172 211.592 475.437 210.156 477.077C208.743 478.718 207.65 480.712 206.875 483.059C206.1 485.383 205.713 487.992 205.713 490.886C205.713 493.825 206.1 496.468 206.875 498.815C207.65 501.162 208.743 503.156 210.156 504.797C211.592 506.438 213.312 507.702 215.317 508.591C217.345 509.457 219.613 509.89 222.119 509.89ZM270.483 488.835H268.433C267.977 487.741 267.407 487.001 266.724 486.613C266.04 486.203 265.106 485.998 263.921 485.998C262.804 485.998 261.779 486.26 260.845 486.784C259.91 487.308 259.102 488.06 258.418 489.04C257.734 489.997 257.199 491.159 256.812 492.526C256.447 493.871 256.253 495.375 256.23 497.038C256.208 497.061 256.196 497.346 256.196 497.893C256.196 498.417 256.185 499.077 256.162 499.875C256.162 500.673 256.162 501.538 256.162 502.473C256.162 503.384 256.162 504.25 256.162 505.07C256.162 505.891 256.162 506.586 256.162 507.155C256.162 507.702 256.162 507.998 256.162 508.044C256.162 508.522 256.253 508.898 256.436 509.172C256.641 509.423 256.971 509.616 257.427 509.753C257.882 509.867 258.486 509.935 259.238 509.958C259.99 509.958 260.913 509.958 262.007 509.958V513C261.278 513 260.571 513 259.888 513C259.227 512.977 258.532 512.966 257.803 512.966C257.074 512.966 256.299 512.966 255.479 512.966C254.681 512.943 253.792 512.932 252.812 512.932C251.969 512.932 251.206 512.943 250.522 512.966C249.839 512.966 249.189 512.966 248.574 512.966C247.982 512.966 247.401 512.977 246.831 513C246.261 513 245.669 513 245.054 513V509.958C246.353 509.958 247.355 509.935 248.062 509.89C248.791 509.821 249.326 509.707 249.668 509.548C250.01 509.388 250.203 509.16 250.249 508.864C250.317 508.568 250.352 508.192 250.352 507.736V487.023C250.352 486.636 250.283 486.34 250.146 486.135C250.033 485.907 249.782 485.747 249.395 485.656C249.03 485.542 248.506 485.485 247.822 485.485C247.161 485.463 246.296 485.451 245.225 485.451V482.409C245.475 482.409 245.863 482.421 246.387 482.443C246.934 482.443 247.469 482.443 247.993 482.443H250.01C250.967 482.443 251.924 482.421 252.881 482.375C253.861 482.329 254.863 482.295 255.889 482.272V488.493C256.982 486.351 258.498 484.676 260.435 483.469C262.394 482.238 264.707 481.623 267.373 481.623C268.376 481.623 269.412 481.691 270.483 481.828V488.835ZM282.412 468.054C283.551 468.054 284.451 468.339 285.112 468.908C285.773 469.455 286.104 470.218 286.104 471.198C286.104 472.201 285.773 472.998 285.112 473.591C284.474 474.16 283.574 474.445 282.412 474.445C281.273 474.445 280.384 474.16 279.746 473.591C279.108 473.021 278.789 472.224 278.789 471.198C278.789 470.218 279.108 469.455 279.746 468.908C280.384 468.339 281.273 468.054 282.412 468.054ZM286.001 507.668C286.001 508.215 286.092 508.648 286.274 508.967C286.457 509.263 286.753 509.491 287.163 509.65C287.573 509.787 288.097 509.878 288.735 509.924C289.396 509.947 290.194 509.958 291.128 509.958V513C290.535 513 289.738 513 288.735 513C287.733 512.977 286.73 512.966 285.728 512.966C284.725 512.966 283.836 512.966 283.062 512.966C282.287 512.943 281.831 512.932 281.694 512.932C280.396 512.932 279.245 512.943 278.242 512.966C277.262 512.989 276.248 513 275.2 513V509.958C276.431 509.958 277.388 509.924 278.071 509.855C278.755 509.787 279.256 509.673 279.575 509.514C279.917 509.354 280.111 509.138 280.156 508.864C280.225 508.568 280.259 508.192 280.259 507.736V486.682C280.259 486.363 280.168 486.123 279.985 485.964C279.826 485.804 279.552 485.69 279.165 485.622C278.778 485.531 278.265 485.485 277.627 485.485C277.012 485.463 276.26 485.451 275.371 485.451V482.409C277.308 482.409 279.131 482.398 280.84 482.375C282.549 482.352 284.269 482.307 286.001 482.238V507.668ZM304.15 473.762V482.409H312.354V485.451H304.185V502.575C304.185 503.737 304.196 504.785 304.219 505.72C304.242 506.631 304.344 507.417 304.526 508.078C304.731 508.739 305.05 509.252 305.483 509.616C305.916 509.958 306.543 510.129 307.363 510.129C307.682 510.129 308.001 510.072 308.32 509.958C308.639 509.821 308.913 509.605 309.141 509.309C309.391 509.012 309.585 508.636 309.722 508.181C309.881 507.702 309.961 507.121 309.961 506.438L313.071 506.13C313.071 507.474 312.878 508.625 312.49 509.582C312.126 510.539 311.624 511.325 310.986 511.94C310.371 512.533 309.642 512.977 308.799 513.273C307.956 513.57 307.067 513.718 306.133 513.718C304.538 513.718 303.239 513.456 302.236 512.932C301.257 512.408 300.482 511.69 299.912 510.778C299.365 509.844 298.989 508.705 298.784 507.36C298.579 506.016 298.477 504.523 298.477 502.883V485.451H292.871V482.751C293.441 482.728 294.079 482.694 294.785 482.648C295.492 482.58 296.164 482.523 296.802 482.478C297.554 482.409 298.306 482.341 299.058 482.272C299.08 482.113 299.115 481.828 299.16 481.418C299.206 480.985 299.251 480.495 299.297 479.948C299.342 479.379 299.399 478.798 299.468 478.205C299.536 477.59 299.593 477.032 299.639 476.53C299.684 476.006 299.718 475.573 299.741 475.231C299.787 474.867 299.81 474.673 299.81 474.65L304.15 473.762ZM323.975 468.054C325.114 468.054 326.014 468.339 326.675 468.908C327.336 469.455 327.666 470.218 327.666 471.198C327.666 472.201 327.336 472.998 326.675 473.591C326.037 474.16 325.137 474.445 323.975 474.445C322.835 474.445 321.947 474.16 321.309 473.591C320.671 473.021 320.352 472.224 320.352 471.198C320.352 470.218 320.671 469.455 321.309 468.908C321.947 468.339 322.835 468.054 323.975 468.054ZM327.563 507.668C327.563 508.215 327.655 508.648 327.837 508.967C328.019 509.263 328.315 509.491 328.726 509.65C329.136 509.787 329.66 509.878 330.298 509.924C330.959 509.947 331.756 509.958 332.69 509.958V513C332.098 513 331.3 513 330.298 513C329.295 512.977 328.293 512.966 327.29 512.966C326.287 512.966 325.399 512.966 324.624 512.966C323.849 512.943 323.394 512.932 323.257 512.932C321.958 512.932 320.807 512.943 319.805 512.966C318.825 512.989 317.811 513 316.763 513V509.958C317.993 509.958 318.95 509.924 319.634 509.855C320.317 509.787 320.819 509.673 321.138 509.514C321.479 509.354 321.673 509.138 321.719 508.864C321.787 508.568 321.821 508.192 321.821 507.736V486.682C321.821 486.363 321.73 486.123 321.548 485.964C321.388 485.804 321.115 485.69 320.728 485.622C320.34 485.531 319.827 485.485 319.189 485.485C318.574 485.463 317.822 485.451 316.934 485.451V482.409C318.87 482.409 320.693 482.398 322.402 482.375C324.111 482.352 325.832 482.307 327.563 482.238V507.668ZM365.127 493.312H361.777C361.663 490.555 360.843 488.516 359.316 487.194C357.812 485.85 355.728 485.178 353.062 485.178C351.444 485.178 349.997 485.474 348.721 486.066C347.445 486.636 346.362 487.456 345.474 488.527C344.608 489.598 343.936 490.909 343.457 492.458C343.001 494.007 342.773 495.751 342.773 497.688C342.773 499.647 343.013 501.368 343.491 502.849C343.97 504.307 344.653 505.594 345.542 506.711C346.453 507.805 347.547 508.648 348.823 509.24C350.099 509.833 351.535 510.129 353.13 510.129C355.409 510.129 357.311 509.571 358.838 508.454C360.387 507.338 361.47 505.663 362.085 503.43L366.084 504.113C365.719 505.686 365.138 507.087 364.341 508.317C363.566 509.525 362.598 510.505 361.436 511.257C360.273 512.009 358.94 512.601 357.437 513.034C355.933 513.49 354.281 513.718 352.48 513.718C350.088 513.718 347.923 513.342 345.986 512.59C344.049 511.815 342.397 510.767 341.03 509.445C339.663 508.124 338.604 506.483 337.852 504.523C337.1 502.541 336.724 500.342 336.724 497.927C336.724 495.648 337.088 493.529 337.817 491.569C338.547 489.587 339.572 487.867 340.894 486.408C342.238 484.95 343.822 483.788 345.645 482.922C347.49 482.056 349.53 481.623 351.763 481.623C352.674 481.623 353.574 481.68 354.463 481.794C355.352 481.908 356.195 482.102 356.992 482.375C357.812 482.648 358.564 483.024 359.248 483.503C359.954 483.981 360.581 484.574 361.128 485.28L361.982 482.58C362.074 482.58 362.267 482.591 362.563 482.614C362.882 482.614 363.213 482.614 363.555 482.614C363.896 482.614 364.215 482.626 364.512 482.648C364.831 482.648 365.036 482.648 365.127 482.648V493.312Z" fill="#6C0404"/>
<path opacity="0.24" d="M418.5 218C418.5 331.631 327.478 423.5 215.5 423.5C103.522 423.5 12.5 331.631 12.5 218C12.5 104.369 103.522 12.5 215.5 12.5C327.478 12.5 418.5 104.369 418.5 218Z" stroke="white" stroke-opacity="0.3" stroke-width="25"/>
<path d="M155.581 145.327C149.305 146.668 142.656 152.015 135.955 161.113C122.792 179.003 111.342 209.64 107.916 236.051C107.17 241.822 107 244.538 107 250.648C107 256.86 107.17 259.254 107.916 263.463C110.206 276.176 116.194 283.39 125.608 284.782C130.086 285.444 134.513 284.578 138.958 282.185C143.181 279.91 146.71 277.093 151.68 272.018C156.039 267.571 158.906 264.142 166.268 254.552C168.625 251.463 171.272 248.085 172.154 247.05L173.748 245.132H215.459H257.171L258.765 247.05C259.647 248.085 262.497 251.734 265.126 255.146C272.861 265.228 275.779 268.64 280.698 273.477C284.871 277.551 287.754 279.826 291.367 281.862C296.083 284.51 300.646 285.478 305.311 284.782C307.499 284.459 309.297 283.899 311.146 282.966C322.663 277.195 326.667 258.388 322.239 230.959C318.677 208.893 309.687 184.231 298.983 167.07C295.523 161.537 292.283 157.379 288.484 153.542C283.988 149.028 280.358 146.668 276.084 145.463C274.744 145.073 274.659 145.073 260.241 145.022C246.162 144.971 245.721 144.988 244.635 145.31C243.193 145.752 241.09 147.093 237.68 149.74C234.61 152.117 232.931 153.203 231.625 153.678C230.794 153.967 229.861 153.984 215.459 153.984C201.058 153.984 200.125 153.967 199.294 153.678C197.988 153.203 196.308 152.117 193.238 149.74C189.846 147.11 187.742 145.769 186.317 145.327C185.266 145.005 184.74 144.988 171.119 145.005C158.159 145.005 156.904 145.039 155.581 145.327ZM269.451 166.442C271.233 166.867 272.793 168.242 273.404 169.973C273.743 170.906 273.743 172.706 273.404 173.639C271.996 177.577 266.941 178.646 264.142 175.608C263.04 174.42 262.7 173.52 262.7 171.806C262.7 170.703 262.785 170.177 263.057 169.582C263.769 168.055 265.177 166.884 266.839 166.442C267.857 166.171 268.264 166.171 269.451 166.442ZM163.893 174.776V180.802H169.915H175.936L175.902 184.808L175.851 188.797L169.881 188.78H163.893L163.859 194.839L163.808 200.916L159.788 200.967L155.751 201V194.89V188.78H149.729H143.707V184.791V180.802H149.729H155.751V174.776V168.751H159.822H163.893V174.776ZM255.881 180.021C257.713 180.446 259.393 182.024 259.902 183.789C260.207 184.842 260.054 186.845 259.596 187.795C259.07 188.864 257.968 189.934 256.848 190.46C255.491 191.088 253.591 191.071 252.251 190.426C251.132 189.883 250.012 188.746 249.503 187.625C248.978 186.505 248.978 184.265 249.486 183.161C250.216 181.6 251.725 180.361 253.405 179.97C254.338 179.75 254.779 179.767 255.881 180.021ZM284.446 180.462C286.363 181.413 287.466 183.195 287.466 185.385C287.466 186.488 287.381 186.828 286.906 187.795C285.922 189.815 284.175 190.901 281.953 190.901C279.714 190.884 277.984 189.798 277 187.795C276.525 186.828 276.44 186.505 276.44 185.385C276.457 184.366 276.542 183.908 276.898 183.161C278.255 180.208 281.529 179.037 284.446 180.462ZM270.792 194.177C271.877 194.703 272.929 195.807 273.455 196.927C274.031 198.166 274.065 200.169 273.523 201.374C273.014 202.494 271.911 203.631 270.775 204.175C269.96 204.582 269.621 204.65 268.383 204.65C267.145 204.65 266.805 204.582 265.974 204.175C263.141 202.783 262.005 199.201 263.565 196.486C264.091 195.552 265.499 194.296 266.398 193.973C267.484 193.566 269.774 193.685 270.792 194.177ZM194.341 216.022C198.429 216.888 201.906 220.35 202.839 224.526C203.416 227.14 202.907 230.178 201.516 232.537C200.634 234.048 198.802 235.779 197.224 236.594C195.409 237.527 194.018 237.884 192.051 237.884C187.708 237.901 183.909 235.525 182.043 231.638C181.195 229.855 180.957 228.769 180.974 226.8C180.991 222.438 183.315 218.772 187.25 216.854C189.405 215.801 191.915 215.513 194.341 216.022ZM241.293 216.022C243.617 216.514 246.111 218.076 247.587 219.943C249.215 222.014 249.944 224.22 249.944 226.97C249.927 230.11 248.825 232.622 246.484 234.863C244.33 236.916 241.853 237.901 238.868 237.884C235.865 237.867 233.219 236.781 231.15 234.693C229.063 232.588 228.046 230.331 227.893 227.479C227.774 225.391 228.113 223.745 229.063 221.827C230.454 219.043 233.474 216.684 236.493 216.039C237.935 215.717 239.869 215.717 241.293 216.022Z" fill="white" fill-opacity="0.25"/>
</svg>
