<svg width="106" height="83" viewBox="0 0 106 83" fill="none" xmlns="http://www.w3.org/2000/svg">
<path d="M13.9722 63.2764H13.1079C13.064 62.9492 12.9688 62.6587 12.8223 62.4048C12.6758 62.146 12.4805 61.9287 12.2363 61.7529C11.9971 61.5771 11.7114 61.4429 11.3794 61.3501C11.0522 61.2573 10.686 61.2109 10.2808 61.2109C9.71924 61.2109 9.21387 61.3062 8.76465 61.4966C8.32031 61.6821 7.94189 61.9507 7.62939 62.3022C7.31689 62.6489 7.07764 63.0713 6.91162 63.5693C6.74561 64.0674 6.6626 64.6289 6.6626 65.2539C6.6626 65.8887 6.74561 66.4575 6.91162 66.9604C7.08252 67.4634 7.32666 67.8906 7.64404 68.2422C7.96143 68.5889 8.34717 68.855 8.80127 69.0405C9.26025 69.2261 9.78027 69.3188 10.3613 69.3188C11.2695 69.3188 11.9556 69.187 12.4194 68.9233C12.8833 68.6548 13.1152 68.2446 13.1152 67.6929V66.7261C13.1152 66.6284 13.1079 66.5552 13.0933 66.5063C13.0786 66.4526 13.0396 66.4136 12.9761 66.3892C12.9175 66.3647 12.8247 66.3525 12.6978 66.3525C12.5708 66.3477 12.3975 66.3452 12.1777 66.3452H11.2622V65.5762C11.4233 65.5762 11.582 65.5786 11.7383 65.5835C11.8994 65.5835 12.0703 65.5835 12.251 65.5835C12.4365 65.5835 12.6343 65.5859 12.8442 65.5908C13.0591 65.5908 13.2983 65.5908 13.562 65.5908C13.6548 65.5908 13.7671 65.5908 13.8989 65.5908C14.0308 65.5859 14.165 65.5835 14.3018 65.5835C14.4434 65.5835 14.5801 65.5835 14.7119 65.5835C14.8486 65.5786 14.9683 65.5762 15.0708 65.5762C15.0708 65.5859 15.0684 65.6299 15.0635 65.708C15.0586 65.7812 15.0537 65.8643 15.0488 65.957C15.0488 66.0449 15.0464 66.1279 15.0415 66.2061C15.0366 66.2793 15.0342 66.3208 15.0342 66.3306C14.8145 66.3354 14.6436 66.3452 14.5215 66.3599C14.3994 66.3696 14.3091 66.3892 14.2505 66.4185C14.1919 66.4478 14.1553 66.4868 14.1406 66.5356C14.1309 66.5796 14.126 66.6406 14.126 66.7188C14.126 66.9824 14.1113 67.3022 14.082 67.6782C14.0576 68.0493 14.0332 68.4326 14.0088 68.8281C13.7402 69.1016 13.4546 69.3262 13.1519 69.502C12.854 69.6777 12.5488 69.8169 12.2363 69.9194C11.9287 70.0171 11.6187 70.083 11.3062 70.1172C10.9937 70.1562 10.6909 70.1758 10.3979 70.1758C9.54834 70.1758 8.80127 70.061 8.15674 69.8315C7.51221 69.5972 6.97021 69.2676 6.53076 68.8428C6.09619 68.4131 5.76904 67.8979 5.54932 67.2974C5.32959 66.6919 5.21973 66.0181 5.21973 65.2759C5.21973 64.5532 5.33936 63.8916 5.57861 63.291C5.81787 62.6855 6.1499 62.168 6.57471 61.7383C6.99951 61.3037 7.50488 60.9668 8.09082 60.7275C8.67676 60.4883 9.31641 60.3687 10.0098 60.3687C10.5908 60.3687 11.1353 60.4541 11.6431 60.625C12.1558 60.791 12.6025 61.0571 12.9834 61.4233L13.0566 60.6689H13.9722V63.2764ZM22.2266 68.3594C22.2266 68.6133 22.2339 68.8086 22.2485 68.9453C22.2681 69.0771 22.3022 69.1748 22.3511 69.2383C22.3999 69.2969 22.4683 69.3311 22.5562 69.3408C22.6489 69.3457 22.7686 69.3481 22.915 69.3481H23.2446V70C22.8589 70 22.4756 70.0024 22.0947 70.0073C21.7188 70.0122 21.3672 70.0195 21.04 70.0293V69.0259C20.7471 69.4019 20.3979 69.6851 19.9927 69.8755C19.5923 70.061 19.1235 70.1538 18.5864 70.1538C18.2349 70.1538 17.9175 70.1025 17.6343 70C17.3511 69.9023 17.1094 69.7656 16.9092 69.5898C16.709 69.4141 16.5527 69.2041 16.4404 68.96C16.333 68.7158 16.2793 68.4473 16.2793 68.1543C16.2793 67.8418 16.3428 67.5586 16.4697 67.3047C16.5967 67.0459 16.7822 66.8262 17.0264 66.6455C17.2705 66.4648 17.5659 66.3257 17.9126 66.228C18.2642 66.1255 18.6646 66.0742 19.1138 66.0742C19.4214 66.0742 19.7314 66.0986 20.0439 66.1475C20.3564 66.1914 20.6738 66.2549 20.9961 66.3379V65.2832C20.9961 64.8389 20.8472 64.4995 20.5493 64.2651C20.2563 64.0308 19.8047 63.9136 19.1943 63.9136C18.6816 63.9136 18.2788 64.0137 17.9858 64.2139C17.6978 64.4092 17.5049 64.7144 17.4072 65.1294L16.7334 65.0488L16.8286 63.7598C17.1411 63.6182 17.5049 63.5034 17.9199 63.4155C18.3398 63.3228 18.811 63.2764 19.3335 63.2764C19.8511 63.2764 20.293 63.3228 20.6592 63.4155C21.0254 63.5083 21.3232 63.6499 21.5527 63.8403C21.7871 64.0308 21.958 64.2749 22.0654 64.5728C22.1729 64.8657 22.2266 65.2124 22.2266 65.6128V68.3594ZM19.3921 66.6895C19.0991 66.6895 18.8354 66.7236 18.6011 66.792C18.3667 66.8555 18.1665 66.9482 18.0005 67.0703C17.8394 67.1924 17.7148 67.3413 17.627 67.5171C17.5391 67.6929 17.4951 67.8931 17.4951 68.1177C17.4951 68.3179 17.5293 68.4961 17.5977 68.6523C17.6709 68.8037 17.771 68.9331 17.8979 69.0405C18.0298 69.1479 18.186 69.2334 18.3667 69.2969C18.5474 69.3604 18.7451 69.3896 18.96 69.3848C19.1943 69.3896 19.4312 69.3555 19.6704 69.2822C19.9146 69.2041 20.1343 69.0967 20.3296 68.96C20.5249 68.8184 20.6836 68.6426 20.8057 68.4326C20.9326 68.2178 20.9961 67.9614 20.9961 67.6636V66.9458C20.7031 66.8628 20.4248 66.7993 20.1611 66.7554C19.8975 66.7114 19.6411 66.6895 19.3921 66.6895ZM29.4043 66.0962C29.4043 65.7739 29.3872 65.4858 29.353 65.2319C29.3237 64.9731 29.2627 64.7534 29.1699 64.5728C29.0771 64.3921 28.9453 64.2578 28.7744 64.1699C28.6035 64.082 28.3789 64.0381 28.1006 64.0381C27.8662 64.0381 27.6562 64.0698 27.4707 64.1333C27.2852 64.1968 27.1143 64.2822 26.958 64.3896C26.8018 64.4971 26.6528 64.6191 26.5112 64.7559C26.3745 64.8926 26.2305 65.0439 26.0791 65.21V68.2935C26.0791 68.5718 26.0767 68.7842 26.0718 68.9307C26.0718 69.0771 26.1035 69.1821 26.167 69.2456C26.2354 69.3042 26.3452 69.3359 26.4966 69.3408C26.6528 69.3457 26.8774 69.3481 27.1704 69.3481V70C27.0435 70 26.9189 70 26.7969 70C26.6748 70 26.5479 70 26.416 70C26.2842 70 26.145 70 25.9985 70C25.8521 69.9951 25.6909 69.9902 25.5151 69.9854C25.1587 69.9854 24.8438 69.9878 24.5703 69.9927C24.2969 69.9976 24.0234 70 23.75 70V69.3481C24.0186 69.3481 24.2261 69.3408 24.3726 69.3262C24.519 69.3066 24.6265 69.2822 24.6948 69.2529C24.7632 69.2188 24.8022 69.1772 24.812 69.1284C24.8267 69.0747 24.834 69.0112 24.834 68.938V64.4336C24.834 64.3555 24.8145 64.2944 24.7754 64.2505C24.7412 64.2017 24.6826 64.1675 24.5996 64.1479C24.5166 64.1235 24.4067 64.1089 24.27 64.104C24.1382 64.0991 23.9771 64.0967 23.7866 64.0967V63.4448C23.8843 63.4448 23.9795 63.4473 24.0723 63.4521C24.1699 63.4521 24.2871 63.4521 24.4238 63.4521C24.6875 63.4521 24.9487 63.4497 25.2075 63.4448C25.4712 63.4351 25.7349 63.4253 25.9985 63.4155V64.4995C26.3257 64.1138 26.7065 63.8159 27.1411 63.606C27.5757 63.396 28.0542 63.2861 28.5767 63.2764C29.0112 63.2764 29.397 63.3838 29.7339 63.5986C30.0757 63.8135 30.332 64.126 30.5029 64.5361C30.8594 64.1357 31.2573 63.8257 31.6968 63.606C32.1362 63.3862 32.605 63.2764 33.103 63.2764C33.5474 63.2861 33.9062 63.3643 34.1797 63.5107C34.458 63.6572 34.6704 63.8623 34.8169 64.126C34.9683 64.3896 35.0684 64.707 35.1172 65.0781C35.1709 65.4492 35.2002 65.8643 35.2051 66.3232V69.0112C35.2051 69.0942 35.2222 69.1577 35.2563 69.2017C35.2905 69.2407 35.3467 69.27 35.4248 69.2896C35.5078 69.3091 35.6152 69.3213 35.7471 69.3262C35.8789 69.3262 36.0425 69.3286 36.2378 69.3335V70C35.9644 70 35.6909 69.9976 35.4175 69.9927C35.1489 69.9878 34.8389 69.9854 34.4873 69.9854C34.3164 69.9854 34.1602 69.9878 34.0186 69.9927C33.877 69.9927 33.7427 69.9927 33.6157 69.9927C33.4888 69.9927 33.3643 69.9951 33.2422 70C33.1201 70 32.9956 70 32.8687 70V69.3335C33.0786 69.3286 33.2544 69.3237 33.396 69.3188C33.5376 69.3091 33.6499 69.292 33.7329 69.2676C33.8159 69.2383 33.8745 69.1992 33.9087 69.1504C33.9478 69.0967 33.9673 69.021 33.9673 68.9233V66.0962C33.9673 65.7495 33.9502 65.4468 33.916 65.188C33.8818 64.9292 33.8159 64.7144 33.7183 64.5435C33.6255 64.3677 33.4937 64.2407 33.3228 64.1626C33.1519 64.0796 32.9297 64.0381 32.6562 64.0381C32.417 64.0381 32.2021 64.0771 32.0117 64.1553C31.8213 64.2285 31.6455 64.3213 31.4844 64.4336C31.3232 64.541 31.1743 64.6631 31.0376 64.7998C30.9058 64.9316 30.7837 65.0732 30.6714 65.2246C30.6616 65.4004 30.6543 65.5786 30.6494 65.7593C30.6445 65.9399 30.6421 66.1255 30.6421 66.3159V68.9893C30.6421 69.0771 30.6567 69.1455 30.686 69.1943C30.7202 69.2383 30.7739 69.2725 30.8472 69.2969C30.9253 69.3164 31.0303 69.3286 31.1621 69.3335C31.2988 69.3384 31.4697 69.3433 31.6748 69.3481V70C31.5527 70 31.4331 70 31.3159 70C31.1987 70 31.0767 70 30.9497 70C30.8276 70 30.6958 70 30.5542 70C30.4126 69.9951 30.2563 69.9902 30.0854 69.9854C29.9048 69.9854 29.7363 69.9878 29.5801 69.9927C29.4287 69.9927 29.2822 69.9927 29.1406 69.9927C28.999 69.9927 28.8599 69.9951 28.7231 70C28.5913 70 28.457 70 28.3203 70V69.3481C28.5254 69.3433 28.6963 69.3384 28.833 69.3335C28.9746 69.3237 29.0869 69.3066 29.1699 69.2822C29.2578 69.2529 29.3188 69.2114 29.353 69.1577C29.3872 69.104 29.4043 69.0332 29.4043 68.9453V66.0962ZM43.5181 66.9458H38.3325C38.3374 67.3364 38.3984 67.6807 38.5156 67.9785C38.6328 68.2764 38.7988 68.5303 39.0137 68.7402C39.2285 68.9453 39.4849 69.104 39.7827 69.2163C40.0854 69.3286 40.4199 69.3848 40.7861 69.3848C41.2988 69.3848 41.7432 69.2798 42.1191 69.0698C42.4951 68.8599 42.7856 68.5352 42.9907 68.0957L43.877 68.2349C43.6523 68.855 43.2568 69.3311 42.6904 69.6631C42.1289 69.9902 41.438 70.1538 40.6177 70.1538C40.0659 70.1538 39.5703 70.0708 39.1309 69.9048C38.6914 69.7388 38.3179 69.5044 38.0103 69.2017C37.7075 68.8989 37.4756 68.5449 37.3145 68.1396C37.1533 67.7295 37.0728 67.2632 37.0728 66.7407C37.0728 66.2134 37.1558 65.7397 37.3218 65.3198C37.4878 64.895 37.7222 64.5312 38.0249 64.2285C38.3276 63.9258 38.6914 63.6914 39.1162 63.5254C39.5459 63.3594 40.022 63.2764 40.5444 63.2764C41.0718 63.2764 41.5454 63.3569 41.9653 63.5181C42.3853 63.6743 42.7417 63.9038 43.0347 64.2065C43.3276 64.5093 43.5522 64.8779 43.7085 65.3125C43.8696 65.7471 43.9526 66.2476 43.9575 66.814L43.5181 66.9458ZM42.771 66.2866C42.7124 65.5493 42.4927 64.9902 42.1118 64.6094C41.731 64.2285 41.2134 64.0381 40.5591 64.0381C40.2515 64.0381 39.9707 64.0918 39.7168 64.1992C39.4629 64.3018 39.2407 64.4482 39.0503 64.6387C38.8599 64.8242 38.7036 65.0537 38.5815 65.3271C38.4644 65.6006 38.3838 65.9204 38.3398 66.2866H42.771Z" fill="white"/>
<path d="M53.4307 68.978C54.2018 68.978 54.8794 68.9181 55.4634 68.7983C56.0474 68.6711 56.5378 68.4614 56.9346 68.1694C57.3314 67.87 57.6309 67.4769 57.833 66.9902C58.0352 66.4961 58.14 65.8822 58.1475 65.1484L59.4502 65.373L59.3379 68.293C58.8887 68.6823 58.4132 69.0042 57.9116 69.2588C57.4175 69.5133 56.9084 69.7155 56.3843 69.8652C55.8677 70.015 55.3398 70.1198 54.8008 70.1797C54.2692 70.2396 53.7414 70.2695 53.2173 70.2695C52.0044 70.2695 50.9375 70.0898 50.0166 69.7305C49.1032 69.3711 48.3358 68.8657 47.7144 68.2144C47.0929 67.5555 46.625 66.7656 46.3105 65.8447C45.9961 64.9238 45.8389 63.9019 45.8389 62.7788C45.8389 61.6333 46.0186 60.6001 46.3779 59.6792C46.7373 58.7508 47.2427 57.9572 47.894 57.2983C48.5454 56.6395 49.3241 56.1341 50.23 55.7822C51.1434 55.4229 52.1541 55.2432 53.2622 55.2432C54.1082 55.2432 54.9056 55.3779 55.6543 55.6475C56.403 55.917 57.0544 56.2951 57.6084 56.7817L57.7319 55.6699H59.1357V59.7017L57.833 59.6792C57.7881 59.1626 57.6496 58.7059 57.4175 58.3091C57.1929 57.9123 56.8896 57.5828 56.5078 57.3208C56.1335 57.0513 55.6842 56.8491 55.1602 56.7144C54.6436 56.5796 54.0671 56.5122 53.4307 56.5122C52.6071 56.5122 51.8621 56.6582 51.1958 56.9502C50.5369 57.2422 49.9717 57.6577 49.5 58.1968C49.0358 58.7358 48.6764 59.391 48.4219 60.1621C48.1673 60.9258 48.04 61.783 48.04 62.7339C48.04 63.6997 48.1673 64.5682 48.4219 65.3394C48.6764 66.1105 49.0358 66.7656 49.5 67.3047C49.9717 67.8438 50.5369 68.2593 51.1958 68.5513C51.8621 68.8358 52.6071 68.978 53.4307 68.978ZM69.3218 62.0601H68.6479C68.4982 61.7007 68.311 61.4574 68.0864 61.3301C67.8618 61.1953 67.5549 61.1279 67.1655 61.1279C66.7987 61.1279 66.4618 61.214 66.1548 61.3862C65.8478 61.5584 65.582 61.8055 65.3574 62.1274C65.1328 62.4419 64.9569 62.8237 64.8296 63.2729C64.7098 63.7147 64.6462 64.2088 64.6387 64.7554C64.6312 64.7629 64.6274 64.8564 64.6274 65.0361C64.6274 65.2083 64.6237 65.4255 64.6162 65.6875C64.6162 65.9495 64.6162 66.234 64.6162 66.541C64.6162 66.8405 64.6162 67.125 64.6162 67.3945C64.6162 67.6641 64.6162 67.8924 64.6162 68.0796C64.6162 68.2593 64.6162 68.3566 64.6162 68.3716C64.6162 68.5288 64.6462 68.6523 64.7061 68.7422C64.7734 68.8245 64.882 68.8882 65.0317 68.9331C65.1815 68.9705 65.3799 68.993 65.627 69.0005C65.874 69.0005 66.1772 69.0005 66.5366 69.0005V70C66.297 70 66.0649 70 65.8403 70C65.6232 69.9925 65.3949 69.9888 65.1553 69.9888C64.9157 69.9888 64.6611 69.9888 64.3916 69.9888C64.1296 69.9813 63.8376 69.9775 63.5156 69.9775C63.2386 69.9775 62.9878 69.9813 62.7632 69.9888C62.5386 69.9888 62.3252 69.9888 62.123 69.9888C61.9284 69.9888 61.7375 69.9925 61.5503 70C61.3631 70 61.1685 70 60.9663 70V69.0005C61.3931 69.0005 61.7225 68.993 61.9546 68.978C62.1942 68.9556 62.3701 68.9181 62.4824 68.8657C62.5947 68.8133 62.6584 68.7384 62.6733 68.6411C62.6958 68.5438 62.707 68.4202 62.707 68.2705V61.4648C62.707 61.3376 62.6846 61.2402 62.6396 61.1729C62.6022 61.098 62.5199 61.0456 62.3926 61.0156C62.2728 60.9782 62.1006 60.9595 61.876 60.9595C61.6589 60.952 61.3743 60.9482 61.0225 60.9482V59.9487C61.1048 59.9487 61.2321 59.9525 61.4043 59.96C61.584 59.96 61.7599 59.96 61.9321 59.96H62.5947C62.9092 59.96 63.2236 59.9525 63.5381 59.9375C63.86 59.9225 64.1895 59.9113 64.5264 59.9038V61.9478C64.8857 61.244 65.3836 60.6937 66.02 60.2969C66.6639 59.8926 67.4238 59.6904 68.2998 59.6904C68.6292 59.6904 68.9699 59.7129 69.3218 59.7578V62.0601ZM73.2412 55.2319C73.6156 55.2319 73.9113 55.3255 74.1284 55.5127C74.3455 55.6924 74.4541 55.9432 74.4541 56.2651C74.4541 56.5946 74.3455 56.8566 74.1284 57.0513C73.9188 57.2384 73.623 57.332 73.2412 57.332C72.8669 57.332 72.5749 57.2384 72.3652 57.0513C72.1556 56.8641 72.0508 56.6021 72.0508 56.2651C72.0508 55.9432 72.1556 55.6924 72.3652 55.5127C72.5749 55.3255 72.8669 55.2319 73.2412 55.2319ZM74.4204 68.248C74.4204 68.4277 74.4504 68.57 74.5103 68.6748C74.5701 68.7721 74.6675 68.847 74.8022 68.8994C74.937 68.9443 75.1092 68.9743 75.3188 68.9893C75.536 68.9967 75.798 69.0005 76.105 69.0005V70C75.9103 70 75.6483 70 75.3188 70C74.9894 69.9925 74.66 69.9888 74.3306 69.9888C74.0011 69.9888 73.7091 69.9888 73.4546 69.9888C73.2 69.9813 73.0503 69.9775 73.0054 69.9775C72.5786 69.9775 72.2005 69.9813 71.8711 69.9888C71.5492 69.9963 71.216 70 70.8716 70V69.0005C71.2759 69.0005 71.5903 68.9893 71.8149 68.9668C72.0396 68.9443 72.2043 68.9069 72.3091 68.8545C72.4214 68.8021 72.485 68.731 72.5 68.6411C72.5225 68.5438 72.5337 68.4202 72.5337 68.2705V61.3525C72.5337 61.2477 72.5037 61.1691 72.4438 61.1167C72.3914 61.0643 72.3016 61.0269 72.1743 61.0044C72.047 60.9744 71.8786 60.9595 71.6689 60.9595C71.4668 60.952 71.2197 60.9482 70.9277 60.9482V59.9487C71.5641 59.9487 72.1631 59.945 72.7246 59.9375C73.2861 59.93 73.8514 59.915 74.4204 59.8926V68.248ZM80.3838 57.1074V59.9487H83.0791V60.9482H80.395V66.5747C80.395 66.9565 80.3988 67.3009 80.4062 67.6079C80.4137 67.9074 80.4474 68.1657 80.5073 68.3828C80.5747 68.5999 80.6795 68.7684 80.8218 68.8882C80.964 69.0005 81.1699 69.0566 81.4395 69.0566C81.5443 69.0566 81.6491 69.0379 81.7539 69.0005C81.8587 68.9556 81.9486 68.8844 82.0234 68.7871C82.1058 68.6898 82.1694 68.5662 82.2144 68.4165C82.2668 68.2593 82.293 68.0684 82.293 67.8438L83.3149 67.7427C83.3149 68.1844 83.2513 68.5625 83.124 68.877C83.0042 69.1914 82.8395 69.4497 82.6299 69.6519C82.4277 69.8465 82.1882 69.9925 81.9111 70.0898C81.6341 70.1872 81.3421 70.2358 81.0352 70.2358C80.5111 70.2358 80.0843 70.1497 79.7549 69.9775C79.4329 69.8053 79.1784 69.5695 78.9912 69.27C78.8115 68.9631 78.688 68.5887 78.6206 68.147C78.5532 67.7052 78.5195 67.2148 78.5195 66.6758V60.9482H76.6777V60.061C76.8649 60.0535 77.0745 60.0423 77.3066 60.0273C77.5387 60.0049 77.7596 59.9862 77.9692 59.9712C78.2163 59.9487 78.4634 59.9263 78.7104 59.9038C78.7179 59.8514 78.7292 59.7578 78.7441 59.623C78.7591 59.4808 78.7741 59.3198 78.7891 59.1401C78.804 58.953 78.8228 58.762 78.8452 58.5674C78.8677 58.3652 78.8864 58.1818 78.9014 58.0171C78.9163 57.8449 78.9276 57.7026 78.9351 57.5903C78.95 57.4705 78.9575 57.4069 78.9575 57.3994L80.3838 57.1074ZM86.8975 55.2319C87.2718 55.2319 87.5675 55.3255 87.7847 55.5127C88.0018 55.6924 88.1104 55.9432 88.1104 56.2651C88.1104 56.5946 88.0018 56.8566 87.7847 57.0513C87.575 57.2384 87.2793 57.332 86.8975 57.332C86.5231 57.332 86.2311 57.2384 86.0215 57.0513C85.8118 56.8641 85.707 56.6021 85.707 56.2651C85.707 55.9432 85.8118 55.6924 86.0215 55.5127C86.2311 55.3255 86.5231 55.2319 86.8975 55.2319ZM88.0767 68.248C88.0767 68.4277 88.1066 68.57 88.1665 68.6748C88.2264 68.7721 88.3237 68.847 88.4585 68.8994C88.5933 68.9443 88.7655 68.9743 88.9751 68.9893C89.1922 68.9967 89.4543 69.0005 89.7612 69.0005V70C89.5666 70 89.3045 70 88.9751 70C88.6457 69.9925 88.3162 69.9888 87.9868 69.9888C87.6574 69.9888 87.3654 69.9888 87.1108 69.9888C86.8563 69.9813 86.7065 69.9775 86.6616 69.9775C86.2349 69.9775 85.8568 69.9813 85.5273 69.9888C85.2054 69.9963 84.8722 70 84.5278 70V69.0005C84.9321 69.0005 85.2466 68.9893 85.4712 68.9668C85.6958 68.9443 85.8605 68.9069 85.9653 68.8545C86.0776 68.8021 86.1413 68.731 86.1562 68.6411C86.1787 68.5438 86.1899 68.4202 86.1899 68.2705V61.3525C86.1899 61.2477 86.16 61.1691 86.1001 61.1167C86.0477 61.0643 85.9578 61.0269 85.8306 61.0044C85.7033 60.9744 85.5348 60.9595 85.3252 60.9595C85.123 60.952 84.876 60.9482 84.584 60.9482V59.9487C85.2204 59.9487 85.8193 59.945 86.3809 59.9375C86.9424 59.93 87.5076 59.915 88.0767 59.8926V68.248ZM100.419 63.5312H99.3184C99.2809 62.6253 99.0114 61.9552 98.5098 61.521C98.0156 61.0793 97.3306 60.8584 96.4546 60.8584C95.923 60.8584 95.4476 60.9557 95.0283 61.1504C94.609 61.3376 94.2534 61.6071 93.9614 61.959C93.6769 62.3109 93.4561 62.7414 93.2988 63.2505C93.1491 63.7596 93.0742 64.3324 93.0742 64.9688C93.0742 65.6126 93.1528 66.1779 93.3101 66.6646C93.4673 67.1437 93.6919 67.5667 93.9839 67.9336C94.2834 68.293 94.6427 68.57 95.062 68.7646C95.4813 68.9593 95.953 69.0566 96.4771 69.0566C97.2257 69.0566 97.8509 68.8732 98.3525 68.5063C98.8617 68.1395 99.2173 67.5892 99.4194 66.8555L100.733 67.0801C100.614 67.5967 100.423 68.0571 100.161 68.4614C99.9061 68.8582 99.5879 69.1802 99.2061 69.4272C98.8242 69.6743 98.3862 69.869 97.8921 70.0112C97.3979 70.161 96.8551 70.2358 96.2637 70.2358C95.4775 70.2358 94.7663 70.1123 94.1299 69.8652C93.4935 69.6107 92.9507 69.2663 92.5015 68.832C92.0522 68.3978 91.7041 67.8587 91.457 67.2148C91.21 66.5635 91.0864 65.841 91.0864 65.0474C91.0864 64.2987 91.2062 63.6024 91.4458 62.9585C91.6854 62.3071 92.0223 61.7419 92.4565 61.2627C92.8983 60.7835 93.4186 60.4017 94.0176 60.1172C94.624 59.8327 95.2941 59.6904 96.0278 59.6904C96.3273 59.6904 96.623 59.7091 96.915 59.7466C97.207 59.784 97.484 59.8477 97.7461 59.9375C98.0156 60.0273 98.2627 60.1509 98.4873 60.3081C98.7194 60.4653 98.9253 60.66 99.105 60.8921L99.3857 60.0049C99.4157 60.0049 99.4793 60.0086 99.5767 60.0161C99.6815 60.0161 99.79 60.0161 99.9023 60.0161C100.015 60.0161 100.119 60.0199 100.217 60.0273C100.322 60.0273 100.389 60.0273 100.419 60.0273V63.5312Z" fill="#6C0404"/>
<path opacity="0.24" d="M77.5 27.5C77.5 41.3506 66.4879 52.5 53 52.5C39.5121 52.5 28.5 41.3506 28.5 27.5C28.5 13.6494 39.5121 2.5 53 2.5C66.4879 2.5 77.5 13.6494 77.5 27.5Z" stroke="white" stroke-opacity="0.3" stroke-width="5"/>
<path d="M46.0447 19.0397C45.2637 19.2026 44.4364 19.8518 43.6027 20.9565C41.9649 23.1289 40.5403 26.8491 40.114 30.0562C40.0211 30.7569 40 31.0867 40 31.8287C40 32.583 40.0211 32.8737 40.114 33.3848C40.3989 34.9285 41.1439 35.8045 42.3153 35.9735C42.8725 36.0539 43.4233 35.9488 43.9763 35.6582C44.5018 35.382 44.9408 35.0398 45.5592 34.4236C46.1016 33.8836 46.4583 33.4672 47.3743 32.3027C47.6677 31.9276 47.9969 31.5175 48.1067 31.3917L48.3051 31.1588H53.4949H58.6848L58.8832 31.3917C58.993 31.5175 59.3475 31.9606 59.6747 32.3749C60.6371 33.5991 61.0001 34.0134 61.6122 34.6008C62.1314 35.0955 62.4902 35.3717 62.9397 35.619C63.5264 35.9405 64.0942 36.058 64.6746 35.9735C64.9468 35.9343 65.1706 35.8663 65.4006 35.753C66.8337 35.0522 67.3318 32.7685 66.7809 29.4378C66.3377 26.7585 65.2191 23.7637 63.8873 21.68C63.4568 21.0081 63.0537 20.5031 62.5809 20.0373C62.0216 19.4891 61.57 19.2026 61.0381 19.0562C60.8714 19.0088 60.8608 19.0088 59.0668 19.0026C57.3151 18.9965 57.2602 18.9985 57.1251 19.0377C56.9457 19.0913 56.684 19.2541 56.2598 19.5756C55.8778 19.8642 55.6688 19.9961 55.5063 20.0538C55.4029 20.0888 55.2868 20.0909 53.4949 20.0909C51.7031 20.0909 51.587 20.0888 51.4836 20.0538C51.3211 19.9961 51.1121 19.8642 50.7301 19.5756C50.308 19.2562 50.0463 19.0933 49.869 19.0397C49.7381 19.0006 49.6727 18.9985 47.9779 19.0006C46.3655 19.0006 46.2093 19.0047 46.0447 19.0397ZM60.2129 21.6037C60.4345 21.6552 60.6286 21.8222 60.7046 22.0324C60.7468 22.1458 60.7468 22.3643 60.7046 22.4776C60.5294 22.9558 59.9005 23.0856 59.5523 22.7167C59.4151 22.5724 59.3729 22.4632 59.3729 22.255C59.3729 22.121 59.3834 22.0572 59.4172 21.985C59.5058 21.7995 59.681 21.6573 59.8878 21.6037C60.0145 21.5707 60.0651 21.5707 60.2129 21.6037ZM47.0788 22.6157V23.3474H47.8281H48.5773L48.5731 23.8338L48.5668 24.3181L47.8239 24.3161H47.0788L47.0746 25.0519L47.0683 25.7898L46.5681 25.7959L46.0658 25.8001V25.0581V24.3161H45.3165H44.5673V23.8317V23.3474H45.3165H46.0658V22.6157V21.884H46.5723H47.0788V22.6157ZM58.5244 23.2526C58.7523 23.3041 58.9613 23.4958 59.0246 23.7101C59.0626 23.8379 59.0436 24.0811 58.9866 24.1965C58.9212 24.3264 58.784 24.4562 58.6447 24.5201C58.4759 24.5964 58.2395 24.5943 58.0727 24.516C57.9335 24.4501 57.7942 24.312 57.7308 24.1759C57.6654 24.0399 57.6654 23.7678 57.7287 23.6339C57.8195 23.4443 58.0073 23.2938 58.2163 23.2464C58.3323 23.2196 58.3872 23.2217 58.5244 23.2526ZM62.0786 23.3062C62.3171 23.4216 62.4543 23.638 62.4543 23.9039C62.4543 24.0378 62.4437 24.0791 62.3846 24.1965C62.2622 24.4418 62.0448 24.5737 61.7683 24.5737C61.4897 24.5717 61.2745 24.4397 61.1521 24.1965C61.093 24.0791 61.0824 24.0399 61.0824 23.9039C61.0845 23.7802 61.0951 23.7246 61.1394 23.6339C61.3082 23.2752 61.7156 23.133 62.0786 23.3062ZM60.3796 24.9715C60.5147 25.0354 60.6455 25.1694 60.711 25.3054C60.7827 25.4559 60.7869 25.6991 60.7194 25.8454C60.6561 25.9814 60.5189 26.1195 60.3775 26.1855C60.2762 26.2349 60.234 26.2432 60.0799 26.2432C59.9258 26.2432 59.8836 26.2349 59.7802 26.1855C59.4277 26.0165 59.2863 25.5816 59.4805 25.2518C59.5459 25.1385 59.7211 24.9859 59.833 24.9468C59.968 24.8973 60.253 24.9117 60.3796 24.9715ZM50.8673 27.6241C51.3759 27.7292 51.8086 28.1497 51.9247 28.6567C51.9964 28.9741 51.9331 29.343 51.7601 29.6295C51.6503 29.813 51.4224 30.0232 51.2261 30.1221C51.0003 30.2355 50.8272 30.2788 50.5824 30.2788C50.0421 30.2808 49.5693 29.9923 49.3371 29.5203C49.2316 29.3039 49.2021 29.172 49.2042 28.9329C49.2063 28.4032 49.4954 27.958 49.9851 27.7251C50.2531 27.5973 50.5655 27.5623 50.8673 27.6241ZM56.7093 27.6241C56.9985 27.6839 57.3087 27.8735 57.4923 28.1002C57.695 28.3517 57.7857 28.6196 57.7857 28.9535C57.7836 29.3348 57.6464 29.6398 57.3552 29.9119C57.0871 30.1613 56.779 30.2808 56.4075 30.2788C56.0339 30.2767 55.7047 30.1448 55.4472 29.8913C55.1876 29.6357 55.061 29.3616 55.042 29.0153C55.0272 28.7618 55.0694 28.5619 55.1876 28.329C55.3607 27.991 55.7364 27.7045 56.112 27.6262C56.2914 27.587 56.532 27.587 56.7093 27.6241Z" fill="white" fill-opacity="0.25"/>
</svg>
